# xmcd
#
# Track frame offsets: 
#        150
#        12307
#        24012
#        41907
#        56200
#        65375
#        79097
#        91210
#        105085
#        119942
#        128607
#        148962
#        159625
#        171852
#
# Disc length: 2418 seconds
#
# Revision: 0
# Processed by: cddbd v1.5.2PL0 Copyright (c) Steve Scherf et al.
# Submitted via: ExactAudioCopy v1.0b3
#
DISCID=ba09700e
DTITLE=Various Artist - Bluegrass Tribute to the Stars of Country
DYEAR=2008
DGENRE=Bluegrass
TTITLE0=New Tradition - I Got Stripes 
TTITLE1=Terry Eldridge - Green Light 
TTITLE2=Jim Hurst - Big Iron 
TTITLE3=Josh Crowe - Born To Lose 
TTITLE4=Wildfire - Moanin' The Blues 
TTITLE5=The Osborne Brothers - Waltz Across Texas 
TTITLE6=Jim and Jesse - Foolin' Around 
TTITLE7=Buck White - San Antonio Rose 
TTITLE8=Terry Eldridge - Gentle On My Mind 
TTITLE9=Jack Cooke - I'm Walking The Dog 
TTITLE10=Wildfire - Bartender Blues 
TTITLE11=Reno Brothers - Mama Tried 
TTITLE12=Larry Stephenson - Alone With You 
TTITLE13=Nothin' Fancy - Tupelo County Jail 
EXTD=
EXTT0=
EXTT1=
EXTT2=
EXTT3=
EXTT4=
EXTT5=
EXTT6=
EXTT7=
EXTT8=
EXTT9=
EXTT10=
EXTT11=
EXTT12=
EXTT13=
PLAYORDER=
